<svg xmlns="http://www.w3.org/2000/svg" viewBox="0 0 1024 1024" fill="none">
  <rect width="1024" height="1024" fill="#001a33"/>

  <!-- S Letter -->
  <path d="M 200 350 Q 200 300 250 300 L 350 300 Q 380 300 380 330 L 380 370 Q 380 390 360 390 L 250 390 Q 230 390 230 410 L 230 500 Q 230 520 250 520 L 400 520 Q 430 520 430 550 L 430 620 Q 430 670 380 670 L 250 670 Q 200 670 200 620 L 200 570 Q 200 550 220 550 L 350 550 Q 370 550 370 530 L 370 450 Q 370 430 350 430 L 250 430 Q 200 430 200 380 Z" fill="#FCD34D"/>

  <!-- K Letter -->
  <path d="M 550 300 L 550 670 Q 550 690 570 690 L 600 690 Q 620 690 620 670 L 620 500 L 750 670 Q 765 690 785 690 L 820 690 Q 840 690 830 675 L 680 480 L 830 330 Q 840 315 820 315 L 785 315 Q 765 315 750 335 L 620 470 L 620 330 Q 620 310 600 310 L 570 310 Q 550 310 550 330 Z" fill="#FCD34D"/>
</svg>